<?xml version="1.0" encoding="UTF-8" standalone="no"?>
<!-- Generator: Adobe Illustrator 19.0.0, SVG Export Plug-In . SVG Version: 6.00 Build 0)  -->

<svg
   version="1.1"
   id="layer"
   x="0px"
   y="0px"
   viewBox="-153 -46 106.1 113.5"
   xml:space="preserve"
   sodipodi:docname="johns-hopkins-university-vector-logo.svg"
   width="106.1"
   height="113.5"
   inkscape:version="1.1.2 (0a00cf5339, 2022-02-04)"
   xmlns:inkscape="http://www.inkscape.org/namespaces/inkscape"
   xmlns:sodipodi="http://sodipodi.sourceforge.net/DTD/sodipodi-0.dtd"
   xmlns="http://www.w3.org/2000/svg"
   xmlns:svg="http://www.w3.org/2000/svg"><defs
   id="defs119">
	
	
	
	
	
	
	
	
	
	
	
	
	
	
	
	
	
	
	
	
	
	
	
	
	
	
	
	
	
	
	
	
	
	
	
</defs><sodipodi:namedview
   id="namedview117"
   pagecolor="#505050"
   bordercolor="#eeeeee"
   borderopacity="1"
   inkscape:pageshadow="0"
   inkscape:pageopacity="0"
   inkscape:pagecheckerboard="0"
   showgrid="false"
   inkscape:zoom="1.3358896"
   inkscape:cx="304.29162"
   inkscape:cy="62.130884"
   inkscape:window-width="3840"
   inkscape:window-height="1532"
   inkscape:window-x="0"
   inkscape:window-y="0"
   inkscape:window-maximized="1"
   inkscape:current-layer="layer" />
<style
   type="text/css"
   id="style2">
	.st0{fill:#062F6B;}
</style>
<path
   class="st0"
   d="m -97.6,67.4 c 2.8,-1.5 6.2,-3.7 9.8,-6.4 V 28 l -9.8,-6.5 z"
   id="path24" /><path
   class="st0"
   d="m -97.6,-1.4 9.8,6.5 v -16.7 c -3.3,-0.2 -6.5,-0.2 -9.8,-0.3 z"
   id="path26" /><path
   class="st0"
   d="m -68.2,-9.9 c -3.3,-0.4 -6.5,-0.8 -9.8,-1 v 22.5 l 9.8,6.5 z"
   id="path28" /><path
   class="st0"
   d="m -78,34.5 v 18 c 3.3,-3.3 6.6,-7.1 9.8,-11.4 v 0 z"
   id="path30" /><path
   class="st0"
   d="m -68.2,41.1 c 0,0 0,0 0,0 z"
   id="path32" /><path
   class="st0"
   d="m -58.3,-8.4 v 33.1 0 c 4.3,-8.9 7.7,-19.2 9.7,-31.3 l -0.3,-0.1 c -3.2,-0.6 -6.3,-1.2 -9.4,-1.7"
   id="path34" /><polygon
   class="st0"
   points="-66.3,269.6 -66.3,292.5 -56.5,299 -56.5,276.1 "
   id="polygon36"
   transform="translate(-21.5,-264.5)" /><path
   class="st0"
   d="m -68.2,18.2 v 22.9 0 c 3.5,-4.8 6.8,-10.2 9.8,-16.3 v -0.1 z"
   id="path38" /><path
   class="st0"
   d="m -58.3,24.8 c 0,0 0,-0.1 0,0 z"
   id="path40" /><path
   class="st0"
   d="m -119.2,29.5 c 2.9,-0.8 5.5,-2.4 7.4,-4.6 -1.1,-0.4 -2.3,-0.8 -3.8,-1.1 -1,2.3 -2.4,4.2 -3.6,5.7"
   id="path42" /><path
   class="st0"
   d="m -134.8,24.9 c 2,2.2 4.5,3.8 7.4,4.6 -1.2,-1.4 -2.6,-3.3 -3.6,-5.7 -1.4,0.3 -2.7,0.7 -3.8,1.1"
   id="path44" /><path
   class="st0"
   d="m -124.7,1 c -1.1,1.2 -2.3,2.8 -3.4,4.9 1,0.1 2.2,0.2 3.4,0.3 z"
   id="path46" /><path
   class="st0"
   d="m -114.6,21.1 c 1.8,0.4 3.3,0.9 4.5,1.4 1.2,-1.9 1.9,-4.1 2.1,-6.5 h -5.7 c -0.1,1.9 -0.4,3.5 -0.9,5.1"
   id="path48" /><path
   class="st0"
   d="m -127.4,-0.3 c -2.9,0.8 -5.5,2.4 -7.4,4.6 1.1,0.4 2.3,0.8 3.8,1.1 1.1,-2.3 2.4,-4.2 3.6,-5.7"
   id="path50" /><path
   class="st0"
   d="m -111.8,4.3 c -1.9,-2.2 -4.5,-3.8 -7.4,-4.6 1.2,1.4 2.6,3.3 3.6,5.7 1.5,-0.3 2.8,-0.7 3.8,-1.1"
   id="path52" /><path
   class="st0"
   d="m -113.6,13.2 h 5.7 c -0.2,-2.4 -1,-4.5 -2.1,-6.5 -1.2,0.5 -2.7,1 -4.5,1.4 0.4,1.6 0.7,3.3 0.9,5.1"
   id="path54" /><path
   class="st0"
   d="m -121.9,28.2 c 1.1,-1.2 2.3,-2.8 3.4,-4.9 -1.1,-0.1 -2.2,-0.2 -3.4,-0.3 z"
   id="path56" /><path
   class="st0"
   d="m -124.7,16 h -5.4 c 0.1,1.6 0.4,3.2 0.9,4.5 1.4,-0.2 2.9,-0.4 4.5,-0.4 z"
   id="path58" /><path
   class="st0"
   d="m -121.9,20.1 c 1.6,0.1 3.1,0.2 4.5,0.4 0.4,-1.4 0.8,-2.9 0.9,-4.5 h -5.4 z"
   id="path60" /><path
   class="st0"
   d="m -118.5,6 c -1,-2.1 -2.3,-3.8 -3.4,-4.9 v 5.2 c 1.2,-0.1 2.4,-0.2 3.4,-0.3"
   id="path62" /><path
   class="st0"
   d="m -116.5,13.2 c -0.1,-1.6 -0.4,-3.2 -0.9,-4.5 -1.4,0.2 -2.9,0.4 -4.5,0.4 v 4.1 z"
   id="path64" /><path
   class="st0"
   d="m -128.1,23.3 c 1,2.1 2.3,3.7 3.4,4.9 V 23 c -1.2,0 -2.3,0.1 -3.4,0.3"
   id="path66" /><path
   class="st0"
   d="m -132,8.1 c -1.8,-0.4 -3.3,-0.9 -4.5,-1.4 -1.1,1.9 -1.9,4.1 -2.1,6.5 h 5.7 c 0.1,-1.8 0.4,-3.5 0.9,-5.1"
   id="path68" /><path
   class="st0"
   d="m -124.7,9.1 c -1.6,-0.1 -3.1,-0.2 -4.5,-0.4 -0.5,1.4 -0.8,2.9 -0.9,4.5 h 5.4 z"
   id="path70" /><path
   class="st0"
   d="m -132.9,16 h -5.7 c 0.2,2.4 1,4.5 2.1,6.5 1.2,-0.5 2.7,-1 4.5,-1.4 -0.4,-1.6 -0.8,-3.2 -0.9,-5.1"
   id="path72" />
<g
   id="g80"
   transform="translate(-21.5,-264.5)">
	<path
   class="st0"
   d="m -129.8,258 c 7.2,44.6 35.1,66.3 49,74 v -79.3 c -16.4,0.2 -32.8,1.9 -48.7,5.3 z m 28,2.8 c 10.1,0 18.3,8.2 18.3,18.3 0,10.1 -8.2,18.3 -18.3,18.3 -10.1,0 -18.3,-8.2 -18.3,-18.3 0.1,-10.1 8.3,-18.3 18.3,-18.3"
   id="path76" />
	<path
   class="st0"
   d="m -27.5,223.9 v 0 c -16.5,-3.5 -33.5,-5.4 -50.9,-5.4 -17.5,0 -34.5,1.9 -51,5.4 h -0.1 c -1.2,0.3 -2,1.3 -2,2.6 v 9.2 c 0,6.1 0.4,11.8 1,17.2 17.1,-3.6 34.6,-5.4 52.1,-5.4 17.5,0 35,1.8 52,5.4 0.7,-5.4 1,-11.1 1,-17.2 v -9.2 c 0,-1.3 -0.9,-2.3 -2.1,-2.6 M -39,246.7 c -12.8,-2.4 -27.4,-3.2 -39.5,-3.2 v 0 c -12,0 -26.7,0.7 -39.5,3.2 -0.5,0.1 -0.9,-0.3 -0.6,-0.9 l 8.4,-18.5 c 0.1,-0.2 5.5,-2.9 5.5,-2.9 6.9,-1.4 18.3,-0.8 26.2,2.1 v 0 c 7.9,-2.9 19.3,-3.6 26.2,-2.1 0,0 5.4,2.7 5.5,2.9 l 8.4,18.5 c 0.3,0.6 -0.1,1 -0.6,0.9"
   id="path78" />
</g>
<g
   id="g86"
   transform="translate(-21.5,-264.5)">
	<path
   class="st0"
   d="m -54.4,227.6 3.5,9.5 c -8.2,-1.1 -15,-0.6 -25.1,2.7 v 0.9 c 9.5,-0.4 21.5,-0.9 31.3,1.2 L -50,229.7 Z"
   id="path82" />
	<path
   class="st0"
   d="m -106.1,237.1 3.5,-9.5 -4.4,2 -5.3,12.2 c 9.7,-2.1 21.8,-1.6 31.3,-1.2 v -0.9 c -10,-3.2 -16.9,-3.7 -25.1,-2.6"
   id="path84" />
</g>


</svg>
