<?xml version="1.0" encoding="UTF-8" standalone="no"?>
<svg
   xml:space="preserve"
   height="190"
   viewBox="0 0 190 190.00281"
   width="190"
   version="1.1"
   id="svg44"
   sodipodi:docname="ub_seal.svg"
   inkscape:version="1.1.2 (0a00cf5339, 2022-02-04)"
   xmlns:inkscape="http://www.inkscape.org/namespaces/inkscape"
   xmlns:sodipodi="http://sodipodi.sourceforge.net/DTD/sodipodi-0.dtd"
   xmlns="http://www.w3.org/2000/svg"
   xmlns:svg="http://www.w3.org/2000/svg"><defs
     id="defs48" /><sodipodi:namedview
     id="namedview46"
     pagecolor="#505050"
     bordercolor="#eeeeee"
     borderopacity="1"
     inkscape:pageshadow="0"
     inkscape:pageopacity="0"
     inkscape:pagecheckerboard="0"
     showgrid="false"
     inkscape:zoom="2.7993028"
     inkscape:cx="215.41078"
     inkscape:cy="46.440135"
     inkscape:window-width="3840"
     inkscape:window-height="1532"
     inkscape:window-x="0"
     inkscape:window-y="0"
     inkscape:window-maximized="1"
     inkscape:current-layer="svg44"
     width="190px" /><path
     d="m 175.03285,132.99608 c 0.6285,-0.0995 1.25125,-0.20713 1.85625,-0.36313 1.31762,-0.33975 2.56887,-0.84362 3.73275,-1.48662 4.929,-2.72663 8.27337,-7.97425 8.27337,-14.0025 0,-9.88625 -8.41975,-15.9925 -17.25375,-15.9925 h -36.99 V 85.26008 c 0,-2.583375 1.03938,-4.071625 3.67288,-4.071625 h 11.57187 v -9.187377 h -48.51749 v 9.187377 h 11.63737 c 2.63513,0 3.67125,1.48825 3.67125,4.071625 v 15.9075 h -60.3525 v 9.21737 l 11.029125,0.005 c 2.572,0 4.18,1.41875 4.18,4.09913 v 14.6225 c -22.71375,0 -26.1525,-10.00275 -26.1525,-19.46 V 85.26033 c 0,-2.583375 1.036125,-4.071625 3.67125,-4.071625 h 11.61625 V 72.001328 H -0.00352512 v 9.187377 H 11.6346 c 2.634375,0 3.67125,1.48825 3.67125,4.071625 v 23.9875 c 0,20.3675 21.51375,28.94875 56.23875,28.94875 v 15.9325 c 0,2.67962 -1.608,4.09825 -4.18,4.09825 H 56.2901 v 9.1955 h 115.3325 c 9.41713,0 18.30875,-6.62425 18.30875,-17.05125 0,-6.63075 -3.78687,-12.3775 -9.31438,-15.195 -1.17037,-0.59938 -2.41837,-1.06363 -3.72625,-1.37988 -0.60499,-0.14637 -1.22937,-0.24262 -1.85624,-0.33887 -0.28313,-0.0429 -0.29038,-0.41738 0,-0.46188 z m -40.38125,-18.7575 v -3.87338 l 20.55125,-0.01 c 5.14975,0 9.32325,4.17513 9.32325,9.32338 0,5.14887 -4.1735,9.32412 -9.32325,9.32412 l -28.19375,0.006 c 5.31562,-4.002 7.6425,-9.90725 7.6425,-14.77125 z m -33.27375,-3.87338 h 15.30875 v 5.03738 c 0,5.76762 -3.668,13.70875 -15.30875,13.70875 v -18.74625 z m 53.15375,47.8275 -53.15375,0.0315 v -20.0275 l 53.15375,7.5e-4 c 5.52587,0 10.006,4.46638 10.006,9.99063 0,5.52512 -4.47925,10.00512 -10.00525,10.00512"
     id="path2"
     style="fill:#005bbb;stroke-width:1.25" /></svg>
